<?xml version="1.0" encoding="UTF-8" standalone="no"?>
<!-- Created with Inkscape (http://www.inkscape.org/) -->

<svg
   width="600"
   height="200"
   viewBox="0 0 158.74998 52.91666"
   version="1.1"
   id="svg5"
   inkscape:version="1.2.1 (9c6d41e410, 2022-07-14)"
   sodipodi:docname="lift_tout.svg"
   xml:space="preserve"
   xmlns:inkscape="http://www.inkscape.org/namespaces/inkscape"
   xmlns:sodipodi="http://sodipodi.sourceforge.net/DTD/sodipodi-0.dtd"
   xmlns="http://www.w3.org/2000/svg"
   xmlns:svg="http://www.w3.org/2000/svg"><sodipodi:namedview
     id="namedview7"
     pagecolor="#ffffff"
     bordercolor="#666666"
     borderopacity="1.0"
     inkscape:showpageshadow="2"
     inkscape:pageopacity="0.0"
     inkscape:pagecheckerboard="0"
     inkscape:deskcolor="#d1d1d1"
     inkscape:document-units="px"
     showgrid="true"
     inkscape:zoom="1.6819304"
     inkscape:cx="216.71527"
     inkscape:cy="93.345123"
     inkscape:window-width="1920"
     inkscape:window-height="974"
     inkscape:window-x="-11"
     inkscape:window-y="-11"
     inkscape:window-maximized="1"
     inkscape:current-layer="layer10"
     showguides="true"><inkscape:grid
       type="xygrid"
       id="grid1596"
       originx="0"
       originy="0" /></sodipodi:namedview><defs
     id="defs2" /><g
     inkscape:groupmode="layer"
     id="layer2"
     inkscape:label="fond"
     style="display:none"
     sodipodi:insensitive="true"><rect
       style="fill:#ccccff;fill-opacity:1;stroke-width:1.32292;stroke-linecap:square;stroke-linejoin:round"
       id="rect1650"
       width="158.75"
       height="52.916672"
       x="0"
       y="-6.8146969e-06" /><path
       style="fill:none;stroke:#0000ff;stroke-width:0.529167;stroke-linecap:butt;stroke-linejoin:miter;stroke-dasharray:none;stroke-opacity:1"
       d="M 0,6e-6 H 158.75"
       id="path1922" /><path
       style="fill:none;stroke:#0000ff;stroke-width:0.529167;stroke-linecap:butt;stroke-linejoin:miter;stroke-dasharray:none;stroke-opacity:1"
       d="M 0,10.583338 H 158.75"
       id="path2650" /><path
       style="fill:none;stroke:#0000ff;stroke-width:0.529167;stroke-linecap:butt;stroke-linejoin:miter;stroke-dasharray:none;stroke-opacity:1"
       d="M 0,21.16667 H 158.75"
       id="path2652" /><path
       style="fill:none;stroke:#0000ff;stroke-width:0.529167;stroke-linecap:butt;stroke-linejoin:miter;stroke-dasharray:none;stroke-opacity:1"
       d="M 0,31.750002 H 158.75"
       id="path2654" /><path
       style="fill:none;stroke:#0000ff;stroke-width:0.529167;stroke-linecap:butt;stroke-linejoin:miter;stroke-dasharray:none;stroke-opacity:1"
       d="M 0,42.333334 H 158.75"
       id="path2656" /><path
       style="fill:none;stroke:#0000ff;stroke-width:0.529167;stroke-linecap:butt;stroke-linejoin:miter;stroke-dasharray:none;stroke-opacity:1"
       d="M 0,52.916666 H 158.75"
       id="path2658" /><text
       xml:space="preserve"
       style="font-size:7.9375px;line-height:1.25;font-family:Arial;-inkscape-font-specification:Arial;fill:#0000ff;stroke:#0000ff;stroke-width:0.132292;stroke-dasharray:none"
       x="2.6458333"
       y="52.916672"
       id="text2714"><tspan
         sodipodi:role="line"
         id="tspan2712"
         style="font-style:normal;font-variant:normal;font-weight:bold;font-stretch:normal;font-size:7.9375px;font-family:Arial;-inkscape-font-specification:'Arial Bold';fill:#0000ff;stroke:#0000ff;stroke-width:0.132292;stroke-dasharray:none"
         x="2.6458333"
         y="52.916672">0</tspan></text><text
       xml:space="preserve"
       style="font-size:7.9375px;line-height:1.25;font-family:Arial;-inkscape-font-specification:Arial;fill:#0000ff;stroke:#0000ff;stroke-width:0.132292;stroke-dasharray:none"
       x="2.6458333"
       y="42.333344"
       id="text2768"><tspan
         sodipodi:role="line"
         id="tspan2766"
         style="font-style:normal;font-variant:normal;font-weight:bold;font-stretch:normal;font-size:7.9375px;font-family:Arial;-inkscape-font-specification:'Arial Bold';fill:#0000ff;stroke:#0000ff;stroke-width:0.132292;stroke-dasharray:none"
         x="2.6458333"
         y="42.333344">1</tspan></text><text
       xml:space="preserve"
       style="font-size:7.9375px;line-height:1.25;font-family:Arial;-inkscape-font-specification:Arial;fill:#0000ff;stroke:#0000ff;stroke-width:0.132292;stroke-dasharray:none"
       x="2.6458333"
       y="31.750013"
       id="text2772"><tspan
         sodipodi:role="line"
         id="tspan2770"
         style="font-style:normal;font-variant:normal;font-weight:bold;font-stretch:normal;font-size:7.9375px;font-family:Arial;-inkscape-font-specification:'Arial Bold';fill:#0000ff;stroke:#0000ff;stroke-width:0.132292;stroke-dasharray:none"
         x="2.6458333"
         y="31.750013">2</tspan></text><text
       xml:space="preserve"
       style="font-size:7.9375px;line-height:1.25;font-family:Arial;-inkscape-font-specification:Arial;fill:#0000ff;stroke:#0000ff;stroke-width:0.132292;stroke-dasharray:none"
       x="2.6458333"
       y="21.166681"
       id="text2776"><tspan
         sodipodi:role="line"
         id="tspan2774"
         style="font-style:normal;font-variant:normal;font-weight:bold;font-stretch:normal;font-size:7.9375px;font-family:Arial;-inkscape-font-specification:'Arial Bold';fill:#0000ff;stroke:#0000ff;stroke-width:0.132292;stroke-dasharray:none"
         x="2.6458333"
         y="21.166681">3</tspan></text><text
       xml:space="preserve"
       style="font-size:7.9375px;line-height:1.25;font-family:Arial;-inkscape-font-specification:Arial;fill:#0000ff;stroke:#0000ff;stroke-width:0.132292;stroke-dasharray:none"
       x="2.6458333"
       y="10.583349"
       id="text2780"><tspan
         sodipodi:role="line"
         id="tspan2778"
         style="font-style:normal;font-variant:normal;font-weight:bold;font-stretch:normal;font-size:7.9375px;font-family:Arial;-inkscape-font-specification:'Arial Bold';fill:#0000ff;stroke:#0000ff;stroke-width:0.132292;stroke-dasharray:none"
         x="2.6458333"
         y="10.583349">4</tspan></text></g><g
     inkscape:groupmode="layer"
     id="layer3"
     inkscape:label="boutons étage"
     style="display:none"><g
       id="g951"><circle
         style="fill:#aaaacc;fill-opacity:1;stroke:none;stroke-width:0.132292;stroke-linecap:square;stroke-linejoin:round;stroke-dasharray:none"
         id="circle7343"
         cx="9.260417"
         cy="24.341679"
         r="1.8520833" /><path
         style="fill:none;fill-opacity:1;stroke:#ccccff;stroke-width:0.79375;stroke-linecap:round;stroke-linejoin:round;stroke-dasharray:none;stroke-opacity:1"
         d="M 8.2020833,24.870844 9.2604167,23.81251 10.31875,24.870844"
         id="path7347" /></g><g
       id="g931"
       transform="translate(15.874998)"><circle
         style="fill:#99ff99;fill-opacity:1;stroke:none;stroke-width:0.132292;stroke-linecap:square;stroke-linejoin:round;stroke-dasharray:none"
         id="circle7441"
         cx="-6.6145811"
         cy="39.15834"
         r="1.8520833" /><path
         style="fill:none;fill-opacity:1;stroke:#ccccff;stroke-width:0.79375;stroke-linecap:round;stroke-linejoin:round;stroke-dasharray:none;stroke-opacity:1"
         d="m -7.6729148,38.629178 1.0583334,1.05833 1.0583334,-1.05833"
         id="path7445" /></g><g
       id="g937"
       transform="translate(15.874998,-31.749996)"><circle
         style="fill:#99ff99;fill-opacity:1;stroke:none;stroke-width:0.132292;stroke-linecap:square;stroke-linejoin:round;stroke-dasharray:none"
         id="circle933"
         cx="-6.6145811"
         cy="39.15834"
         r="1.8520833" /><path
         style="fill:none;fill-opacity:1;stroke:#ccccff;stroke-width:0.79375;stroke-linecap:round;stroke-linejoin:round;stroke-dasharray:none;stroke-opacity:1"
         d="m -7.6729148,38.629178 1.0583334,1.05833 1.0583334,-1.05833"
         id="path935" /></g><g
       id="g943"
       transform="translate(15.874998,-10.583332)"><circle
         style="fill:#99ff99;fill-opacity:1;stroke:none;stroke-width:0.132292;stroke-linecap:square;stroke-linejoin:round;stroke-dasharray:none"
         id="circle939"
         cx="-6.6145811"
         cy="39.15834"
         r="1.8520833" /><path
         style="fill:none;fill-opacity:1;stroke:#ccccff;stroke-width:0.79375;stroke-linecap:round;stroke-linejoin:round;stroke-dasharray:none;stroke-opacity:1"
         d="m -7.6729148,38.629178 1.0583334,1.05833 1.0583334,-1.05833"
         id="path941" /></g><g
       id="g967"
       transform="translate(0,10.583332)"><circle
         style="fill:#aaaacc;fill-opacity:1;stroke:none;stroke-width:0.132292;stroke-linecap:square;stroke-linejoin:round;stroke-dasharray:none"
         id="circle963"
         cx="9.260417"
         cy="24.341679"
         r="1.8520833" /><path
         style="fill:none;fill-opacity:1;stroke:#ccccff;stroke-width:0.79375;stroke-linecap:round;stroke-linejoin:round;stroke-dasharray:none;stroke-opacity:1"
         d="M 8.2020833,24.870844 9.2604167,23.81251 10.31875,24.870844"
         id="path965" /></g><g
       id="g973"
       transform="translate(0,-10.583332)"><circle
         style="fill:#aaaacc;fill-opacity:1;stroke:none;stroke-width:0.132292;stroke-linecap:square;stroke-linejoin:round;stroke-dasharray:none"
         id="circle969"
         cx="9.260417"
         cy="28.575008"
         r="1.8520833" /><path
         style="fill:none;fill-opacity:1;stroke:#ccccff;stroke-width:0.79375;stroke-linecap:round;stroke-linejoin:round;stroke-dasharray:none;stroke-opacity:1"
         d="m 8.2020832,28.045846 1.0583334,1.05833 1.0583334,-1.05833"
         id="path971" /></g><g
       id="g979"
       transform="translate(0,-10.583332)"><circle
         style="fill:#aaaacc;fill-opacity:1;stroke:none;stroke-width:0.132292;stroke-linecap:square;stroke-linejoin:round;stroke-dasharray:none"
         id="circle975"
         cx="9.260417"
         cy="24.341679"
         r="1.8520833" /><path
         style="fill:none;fill-opacity:1;stroke:#ccccff;stroke-width:0.79375;stroke-linecap:round;stroke-linejoin:round;stroke-dasharray:none;stroke-opacity:1"
         d="M 8.2020833,24.870844 9.2604167,23.81251 10.31875,24.870844"
         id="path977" /></g><g
       id="g985"
       transform="translate(15.874998,10.583332)"><circle
         style="fill:#99ff99;fill-opacity:1;stroke:none;stroke-width:0.132292;stroke-linecap:square;stroke-linejoin:round;stroke-dasharray:none"
         id="circle981"
         cx="-6.6145811"
         cy="34.925011"
         r="1.8520833" /><path
         style="fill:none;fill-opacity:1;stroke:#ccccff;stroke-width:0.79375;stroke-linecap:round;stroke-linejoin:round;stroke-dasharray:none;stroke-opacity:1"
         d="m -7.6729147,35.454176 1.0583334,-1.058334 1.0583333,1.058334"
         id="path983" /></g></g><g
     inkscape:groupmode="layer"
     id="layer4"
     inkscape:label="personnages étage"
     style="display:none"
     sodipodi:insensitive="true"><circle
       style="fill:#0000ff;fill-opacity:1;stroke:none;stroke-width:0.529167;stroke-linecap:round;stroke-linejoin:round;stroke-dasharray:none;stroke-opacity:1"
       id="path7750"
       cx="50.270828"
       cy="50.270828"
       r="1.3229165" /><circle
       style="fill:#0000ff;fill-opacity:1;stroke:none;stroke-width:0.529167;stroke-linecap:round;stroke-linejoin:round;stroke-dasharray:none;stroke-opacity:1"
       id="circle7856"
       cx="47.095833"
       cy="50.270828"
       r="1.3229165" /><circle
       style="fill:#0000ff;fill-opacity:1;stroke:none;stroke-width:0.529167;stroke-linecap:round;stroke-linejoin:round;stroke-dasharray:none;stroke-opacity:1"
       id="circle7858"
       cx="43.92083"
       cy="50.270828"
       r="1.3229165" /><circle
       style="fill:#0000ff;fill-opacity:1;stroke:none;stroke-width:0.529167;stroke-linecap:round;stroke-linejoin:round;stroke-dasharray:none;stroke-opacity:1"
       id="circle7860"
       cx="40.745827"
       cy="50.270828"
       r="1.3229165" /><circle
       style="fill:#0000ff;fill-opacity:1;stroke:none;stroke-width:0.529167;stroke-linecap:round;stroke-linejoin:round;stroke-dasharray:none;stroke-opacity:1"
       id="circle7862"
       cx="37.570824"
       cy="50.270828"
       r="1.3229165" /><circle
       style="fill:#0000ff;fill-opacity:1;stroke:none;stroke-width:0.529167;stroke-linecap:round;stroke-linejoin:round;stroke-dasharray:none;stroke-opacity:1"
       id="circle7864"
       cx="34.395821"
       cy="50.270828"
       r="1.3229165" /><circle
       style="fill:#0000ff;fill-opacity:1;stroke:none;stroke-width:0.529167;stroke-linecap:round;stroke-linejoin:round;stroke-dasharray:none;stroke-opacity:1"
       id="circle905"
       cx="50.270828"
       cy="39.6875"
       r="1.3229165" /><circle
       style="fill:#0000ff;fill-opacity:1;stroke:none;stroke-width:0.529167;stroke-linecap:round;stroke-linejoin:round;stroke-dasharray:none;stroke-opacity:1"
       id="circle907"
       cx="47.095833"
       cy="39.6875"
       r="1.3229165" /><circle
       style="fill:#0000ff;fill-opacity:1;stroke:none;stroke-width:0.529167;stroke-linecap:round;stroke-linejoin:round;stroke-dasharray:none;stroke-opacity:1"
       id="circle909"
       cx="50.270828"
       cy="29.10417"
       r="1.3229165" /><circle
       style="fill:#0000ff;fill-opacity:1;stroke:none;stroke-width:0.529167;stroke-linecap:round;stroke-linejoin:round;stroke-dasharray:none;stroke-opacity:1"
       id="circle911"
       cx="47.095833"
       cy="29.10417"
       r="1.3229165" /><circle
       style="fill:#0000ff;fill-opacity:1;stroke:none;stroke-width:0.529167;stroke-linecap:round;stroke-linejoin:round;stroke-dasharray:none;stroke-opacity:1"
       id="circle913"
       cx="43.92083"
       cy="29.10417"
       r="1.3229165" /><circle
       style="fill:#0000ff;fill-opacity:1;stroke:none;stroke-width:0.529167;stroke-linecap:round;stroke-linejoin:round;stroke-dasharray:none;stroke-opacity:1"
       id="circle915"
       cx="50.270828"
       cy="7.9375057"
       r="1.3229165" /></g><g
     inkscape:groupmode="layer"
     id="layer5"
     inkscape:label="ascenseurs"
     style="display:none"
     sodipodi:insensitive="true"><rect
       style="fill:#cccccc;fill-opacity:1;stroke:#000000;stroke-width:0.529167;stroke-linecap:round;stroke-linejoin:round;stroke-dasharray:none;stroke-opacity:1"
       id="rect7919"
       width="15.874998"
       height="10.583332"
       x="52.91666"
       y="31.749998" /><circle
       style="fill:#0000ff;fill-opacity:1;stroke:none;stroke-width:0.529167;stroke-linecap:round;stroke-linejoin:round;stroke-dasharray:none;stroke-opacity:1"
       id="path7750-5"
       cx="54.239578"
       cy="39.687496"
       r="1.3229165" /><circle
       style="fill:#0000ff;fill-opacity:1;stroke:none;stroke-width:0.529167;stroke-linecap:round;stroke-linejoin:round;stroke-dasharray:none;stroke-opacity:1"
       id="circle10593"
       cx="57.414577"
       cy="39.687496"
       r="1.3229165" /><circle
       style="fill:#0000ff;fill-opacity:1;stroke:none;stroke-width:0.529167;stroke-linecap:round;stroke-linejoin:round;stroke-dasharray:none;stroke-opacity:1"
       id="circle10595"
       cx="60.589577"
       cy="39.687496"
       r="1.3229165" /><circle
       style="fill:#0000ff;fill-opacity:1;stroke:none;stroke-width:0.529167;stroke-linecap:round;stroke-linejoin:round;stroke-dasharray:none;stroke-opacity:1"
       id="circle10597"
       cx="63.764576"
       cy="39.687496"
       r="1.3229165" /><rect
       style="fill:#cccccc;fill-opacity:1;stroke:#000000;stroke-width:0.529167;stroke-linecap:round;stroke-linejoin:round;stroke-dasharray:none;stroke-opacity:1"
       id="rect987"
       width="15.874998"
       height="10.583332"
       x="74.083321"
       y="26.458332" /><circle
       style="display:inline;fill:#0000ff;fill-opacity:1;stroke:none;stroke-width:0.529167;stroke-linecap:round;stroke-linejoin:round;stroke-dasharray:none;stroke-opacity:1"
       id="circle2046"
       cx="88.106239"
       cy="34.395832"
       r="1.3229165" /><circle
       style="display:inline;fill:#0000ff;fill-opacity:1;stroke:none;stroke-width:0.529167;stroke-linecap:round;stroke-linejoin:round;stroke-dasharray:none;stroke-opacity:1"
       id="circle2048"
       cx="84.931244"
       cy="34.395832"
       r="1.3229165" /><circle
       style="display:inline;fill:#0000ff;fill-opacity:1;stroke:none;stroke-width:0.529167;stroke-linecap:round;stroke-linejoin:round;stroke-dasharray:none;stroke-opacity:1"
       id="circle2050"
       cx="81.756241"
       cy="34.395832"
       r="1.3229165" /><circle
       style="display:inline;fill:#0000ff;fill-opacity:1;stroke:none;stroke-width:0.529167;stroke-linecap:round;stroke-linejoin:round;stroke-dasharray:none;stroke-opacity:1"
       id="circle2052"
       cx="78.581238"
       cy="34.395832"
       r="1.3229165" /><circle
       style="display:inline;fill:#0000ff;fill-opacity:1;stroke:none;stroke-width:0.529167;stroke-linecap:round;stroke-linejoin:round;stroke-dasharray:none;stroke-opacity:1"
       id="circle2054"
       cx="75.406235"
       cy="34.395832"
       r="1.3229165" /><text
       xml:space="preserve"
       style="font-style:normal;font-variant:normal;font-weight:bold;font-stretch:normal;font-size:2.64583px;line-height:1.25;font-family:Arial;-inkscape-font-specification:'Arial Bold';fill:#99ff99;fill-opacity:1;stroke-width:0.264583"
       x="53.181244"
       y="34.131248"
       id="text2119"><tspan
         sodipodi:role="line"
         id="tspan2117"
         style="font-style:normal;font-variant:normal;font-weight:bold;font-stretch:normal;font-size:2.64583px;font-family:Arial;-inkscape-font-specification:'Arial Bold';fill:#99ff99;fill-opacity:1;stroke-width:0.264583"
         x="53.181244"
         y="34.131248">0</tspan></text><text
       xml:space="preserve"
       style="font-style:normal;font-variant:normal;font-weight:bold;font-stretch:normal;font-size:2.64583px;line-height:1.25;font-family:Arial;-inkscape-font-specification:'Arial Bold';fill:#aaaacc;fill-opacity:1;stroke-width:0.264583"
       x="55.033325"
       y="34.131248"
       id="text2173"><tspan
         sodipodi:role="line"
         id="tspan2171"
         style="font-style:normal;font-variant:normal;font-weight:bold;font-stretch:normal;font-size:2.64583px;font-family:Arial;-inkscape-font-specification:'Arial Bold';fill:#aaaacc;fill-opacity:1;stroke-width:0.264583"
         x="55.033325"
         y="34.131248">1</tspan></text><text
       xml:space="preserve"
       style="font-style:normal;font-variant:normal;font-weight:bold;font-stretch:normal;font-size:2.64583px;line-height:1.25;font-family:Arial;-inkscape-font-specification:'Arial Bold';fill:#aaaacc;fill-opacity:1;stroke-width:0.264583"
       x="56.620827"
       y="34.131248"
       id="text2177"><tspan
         sodipodi:role="line"
         id="tspan2175"
         style="font-style:normal;font-variant:normal;font-weight:bold;font-stretch:normal;font-size:2.64583px;font-family:Arial;-inkscape-font-specification:'Arial Bold';fill:#aaaacc;fill-opacity:1;stroke-width:0.264583"
         x="56.620827"
         y="34.131248">2</tspan></text><text
       xml:space="preserve"
       style="font-style:normal;font-variant:normal;font-weight:bold;font-stretch:normal;font-size:2.64583px;line-height:1.25;font-family:Arial;-inkscape-font-specification:'Arial Bold';fill:#aaaacc;fill-opacity:1;stroke-width:0.264583"
       x="58.472908"
       y="34.131248"
       id="text2287"><tspan
         sodipodi:role="line"
         id="tspan2285"
         style="font-style:normal;font-variant:normal;font-weight:bold;font-stretch:normal;font-size:2.64583px;font-family:Arial;-inkscape-font-specification:'Arial Bold';fill:#aaaacc;fill-opacity:1;stroke-width:0.264583"
         x="58.472908"
         y="34.131248">3</tspan></text><text
       xml:space="preserve"
       style="font-style:normal;font-variant:normal;font-weight:bold;font-stretch:normal;font-size:2.64583px;line-height:1.25;font-family:Arial;-inkscape-font-specification:'Arial Bold';fill:#aaaacc;fill-opacity:1;stroke-width:0.264583"
       x="60.06041"
       y="34.131248"
       id="text2291"><tspan
         sodipodi:role="line"
         id="tspan2289"
         style="font-style:normal;font-variant:normal;font-weight:bold;font-stretch:normal;font-size:2.64583px;font-family:Arial;-inkscape-font-specification:'Arial Bold';fill:#aaaacc;fill-opacity:1;stroke-width:0.264583"
         x="60.06041"
         y="34.131248">4</tspan></text><text
       xml:space="preserve"
       style="font-style:normal;font-variant:normal;font-weight:bold;font-stretch:normal;font-size:2.64583px;line-height:1.25;font-family:Arial;-inkscape-font-specification:'Arial Bold';fill:#aaaacc;fill-opacity:1;stroke-width:0.264583"
       x="74.3479"
       y="28.839582"
       id="text2433"><tspan
         sodipodi:role="line"
         id="tspan2431"
         style="font-style:normal;font-variant:normal;font-weight:bold;font-stretch:normal;font-size:2.64583px;font-family:Arial;-inkscape-font-specification:'Arial Bold';fill:#aaaacc;fill-opacity:1;stroke-width:0.264583"
         x="74.3479"
         y="28.839582">0</tspan></text><text
       xml:space="preserve"
       style="font-style:normal;font-variant:normal;font-weight:bold;font-stretch:normal;font-size:2.64583px;line-height:1.25;font-family:Arial;-inkscape-font-specification:'Arial Bold';fill:#aaaacc;fill-opacity:1;stroke-width:0.264583"
       x="76.199982"
       y="28.839582"
       id="text2437"><tspan
         sodipodi:role="line"
         id="tspan2435"
         style="font-style:normal;font-variant:normal;font-weight:bold;font-stretch:normal;font-size:2.64583px;font-family:Arial;-inkscape-font-specification:'Arial Bold';fill:#aaaacc;fill-opacity:1;stroke-width:0.264583"
         x="76.199982"
         y="28.839582">1</tspan></text><text
       xml:space="preserve"
       style="font-style:normal;font-variant:normal;font-weight:bold;font-stretch:normal;font-size:2.64583px;line-height:1.25;font-family:Arial;-inkscape-font-specification:'Arial Bold';fill:#99ff99;fill-opacity:1;stroke-width:0.264583"
       x="77.787483"
       y="28.839582"
       id="text2441"><tspan
         sodipodi:role="line"
         id="tspan2439"
         style="font-style:normal;font-variant:normal;font-weight:bold;font-stretch:normal;font-size:2.64583px;font-family:Arial;-inkscape-font-specification:'Arial Bold';fill:#99ff99;fill-opacity:1;stroke-width:0.264583"
         x="77.787483"
         y="28.839582">2</tspan></text><text
       xml:space="preserve"
       style="font-style:normal;font-variant:normal;font-weight:bold;font-stretch:normal;font-size:2.64583px;line-height:1.25;font-family:Arial;-inkscape-font-specification:'Arial Bold';fill:#99ff99;fill-opacity:1;stroke-width:0.264583"
       x="79.639565"
       y="28.839582"
       id="text2445"><tspan
         sodipodi:role="line"
         id="tspan2443"
         style="font-style:normal;font-variant:normal;font-weight:bold;font-stretch:normal;font-size:2.64583px;font-family:Arial;-inkscape-font-specification:'Arial Bold';fill:#99ff99;fill-opacity:1;stroke-width:0.264583"
         x="79.639565"
         y="28.839582">3</tspan></text><text
       xml:space="preserve"
       style="font-style:normal;font-variant:normal;font-weight:bold;font-stretch:normal;font-size:2.64583px;line-height:1.25;font-family:Arial;-inkscape-font-specification:'Arial Bold';fill:#aaaacc;fill-opacity:1;stroke-width:0.264583"
       x="81.227066"
       y="28.839582"
       id="text2449"><tspan
         sodipodi:role="line"
         id="tspan2447"
         style="font-style:normal;font-variant:normal;font-weight:bold;font-stretch:normal;font-size:2.64583px;font-family:Arial;-inkscape-font-specification:'Arial Bold';fill:#aaaacc;fill-opacity:1;stroke-width:0.264583"
         x="81.227066"
         y="28.839582">4</tspan></text><rect
       style="fill:#cccccc;fill-opacity:0.5;stroke:#000000;stroke-width:0.529167;stroke-linecap:round;stroke-linejoin:round;stroke-dasharray:none;stroke-opacity:1"
       id="rect2063"
       width="7.9374948"
       height="10.583332"
       x="74.083328"
       y="26.45833" /><rect
       style="fill:#cccccc;fill-opacity:0.5;stroke:#000000;stroke-width:0.529167;stroke-linecap:round;stroke-linejoin:round;stroke-dasharray:none;stroke-opacity:1"
       id="rect2061"
       width="7.93749"
       height="10.583332"
       x="82.020821"
       y="26.45833" /><rect
       style="fill:#cccccc;fill-opacity:0.5;stroke:#000000;stroke-width:0.529167;stroke-linecap:round;stroke-linejoin:round;stroke-dasharray:none;stroke-opacity:1"
       id="rect10569"
       width="5.2916579"
       height="10.583332"
       x="52.916668"
       y="31.749996" /><rect
       style="fill:#cccccc;fill-opacity:0.5;stroke:#000000;stroke-width:0.529167;stroke-linecap:round;stroke-linejoin:round;stroke-dasharray:none;stroke-opacity:1"
       id="rect10463"
       width="5.2916646"
       height="10.583332"
       x="63.499992"
       y="31.749996" /></g><g
     inkscape:groupmode="layer"
     id="layer6"
     inkscape:label="lumières ascenseurs"
     style="display:none"
     sodipodi:insensitive="true"><path
       style="fill:#aaaacc;fill-opacity:1;stroke:none;stroke-width:0.264583px;stroke-linecap:butt;stroke-linejoin:miter;stroke-opacity:1"
       d="M 52.387493,45.508328 51.064577,42.862495 49.74166,45.508328 Z"
       id="path1127"
       sodipodi:nodetypes="cccc" /><path
       style="fill:#aaaacc;fill-opacity:1;stroke:none;stroke-width:0.264583px;stroke-linecap:butt;stroke-linejoin:miter;stroke-opacity:1"
       d="M 52.387493,46.037494 51.064577,48.683327 49.74166,46.037494 Z"
       id="path1915"
       sodipodi:nodetypes="cccc" /><path
       style="fill:#aaaacc;fill-opacity:1;stroke:none;stroke-width:0.264583px;stroke-linecap:butt;stroke-linejoin:miter;stroke-opacity:1"
       d="M 52.387493,34.924996 51.064577,32.279163 49.74166,34.924996 Z"
       id="path1917"
       sodipodi:nodetypes="cccc" /><path
       style="fill:#99ff99;fill-opacity:1;stroke:none;stroke-width:0.264583px;stroke-linecap:butt;stroke-linejoin:miter;stroke-opacity:1"
       d="M 52.387493,35.454162 51.064577,38.099995 49.74166,35.454162 Z"
       id="path1919"
       sodipodi:nodetypes="cccc" /><path
       style="fill:#aaaacc;fill-opacity:1;stroke:none;stroke-width:0.264583px;stroke-linecap:butt;stroke-linejoin:miter;stroke-opacity:1"
       d="M 52.387493,24.341664 51.064577,21.695831 49.74166,24.341664 Z"
       id="path1921"
       sodipodi:nodetypes="cccc" /><path
       style="fill:#aaaacc;fill-opacity:1;stroke:none;stroke-width:0.264583px;stroke-linecap:butt;stroke-linejoin:miter;stroke-opacity:1"
       d="M 52.387493,24.87083 51.064577,27.516663 49.74166,24.87083 Z"
       id="path1923"
       sodipodi:nodetypes="cccc" /><path
       style="fill:#aaaacc;fill-opacity:1;stroke:none;stroke-width:0.264583px;stroke-linecap:butt;stroke-linejoin:miter;stroke-opacity:1"
       d="M 52.387493,13.758332 51.064577,11.112499 49.74166,13.758332 Z"
       id="path1925"
       sodipodi:nodetypes="cccc" /><path
       style="fill:#aaaacc;fill-opacity:1;stroke:none;stroke-width:0.264583px;stroke-linecap:butt;stroke-linejoin:miter;stroke-opacity:1"
       d="M 52.387493,14.287498 51.064577,16.933331 49.74166,14.287498 Z"
       id="path1927"
       sodipodi:nodetypes="cccc" /><path
       style="fill:#aaaacc;fill-opacity:1;stroke:none;stroke-width:0.264583px;stroke-linecap:butt;stroke-linejoin:miter;stroke-opacity:1"
       d="M 52.387493,3.175 51.064577,0.529167 49.74166,3.175 Z"
       id="path1929"
       sodipodi:nodetypes="cccc" /><path
       style="fill:#aaaacc;fill-opacity:1;stroke:none;stroke-width:0.264583px;stroke-linecap:butt;stroke-linejoin:miter;stroke-opacity:1"
       d="M 52.387493,3.704166 51.064577,6.349999 49.74166,3.704166 Z"
       id="path1931"
       sodipodi:nodetypes="cccc" /><path
       style="fill:#aaaacc;fill-opacity:1;stroke:none;stroke-width:0.264583px;stroke-linecap:butt;stroke-linejoin:miter;stroke-opacity:1"
       d="m 73.554157,45.508328 -1.322916,-2.645833 -1.322917,2.645833 z"
       id="path1937"
       sodipodi:nodetypes="cccc" /><path
       style="fill:#aaaacc;fill-opacity:1;stroke:none;stroke-width:0.264583px;stroke-linecap:butt;stroke-linejoin:miter;stroke-opacity:1"
       d="m 73.554157,46.037494 -1.322916,2.645833 -1.322917,-2.645833 z"
       id="path1939"
       sodipodi:nodetypes="cccc" /><path
       style="fill:#aaaacc;fill-opacity:1;stroke:none;stroke-width:0.264583px;stroke-linecap:butt;stroke-linejoin:miter;stroke-opacity:1"
       d="m 73.554157,34.924996 -1.322916,-2.645833 -1.322917,2.645833 z"
       id="path1941"
       sodipodi:nodetypes="cccc" /><path
       style="fill:#aaaacc;fill-opacity:1;stroke:none;stroke-width:0.264583px;stroke-linecap:butt;stroke-linejoin:miter;stroke-opacity:1"
       d="m 73.554157,35.454162 -1.322916,2.645833 -1.322917,-2.645833 z"
       id="path1943"
       sodipodi:nodetypes="cccc" /><path
       style="fill:#aaaacc;fill-opacity:1;stroke:none;stroke-width:0.264583px;stroke-linecap:butt;stroke-linejoin:miter;stroke-opacity:1"
       d="m 73.554157,24.341664 -1.322916,-2.645833 -1.322917,2.645833 z"
       id="path1945"
       sodipodi:nodetypes="cccc" /><path
       style="fill:#aaaacc;fill-opacity:1;stroke:none;stroke-width:0.264583px;stroke-linecap:butt;stroke-linejoin:miter;stroke-opacity:1"
       d="M 73.554157,24.87083 72.231241,27.516663 70.908324,24.87083 Z"
       id="path1947"
       sodipodi:nodetypes="cccc" /><path
       style="fill:#aaaacc;fill-opacity:1;stroke:none;stroke-width:0.264583px;stroke-linecap:butt;stroke-linejoin:miter;stroke-opacity:1"
       d="m 73.554157,13.758332 -1.322916,-2.645833 -1.322917,2.645833 z"
       id="path1949"
       sodipodi:nodetypes="cccc" /><path
       style="fill:#aaaacc;fill-opacity:1;stroke:none;stroke-width:0.264583px;stroke-linecap:butt;stroke-linejoin:miter;stroke-opacity:1"
       d="m 73.554157,14.287498 -1.322916,2.645833 -1.322917,-2.645833 z"
       id="path1951"
       sodipodi:nodetypes="cccc" /><path
       style="fill:#aaaacc;fill-opacity:1;stroke:none;stroke-width:0.264583px;stroke-linecap:butt;stroke-linejoin:miter;stroke-opacity:1"
       d="M 73.554157,3.175 72.231241,0.529167 70.908324,3.175 Z"
       id="path1953"
       sodipodi:nodetypes="cccc" /><path
       style="fill:#aaaacc;fill-opacity:1;stroke:none;stroke-width:0.264583px;stroke-linecap:butt;stroke-linejoin:miter;stroke-opacity:1"
       d="M 73.554157,3.704166 72.231241,6.349999 70.908324,3.704166 Z"
       id="path1955"
       sodipodi:nodetypes="cccc" /></g><g
     inkscape:groupmode="layer"
     id="layer1"
     inkscape:label="cache ascenseurs"
     style="display:none"><path
       id="rect953"
       style="fill:#ffffff;fill-opacity:0.8;stroke:none;stroke-width:0.529167;stroke-linecap:round;stroke-linejoin:round"
       d="M -2.645833,-2.645833 V 55.562493 H 161.39581 V -2.645833 Z m 76.729157,27.781247 h 15.874998 c 0.732892,0 1.322916,0.590022 1.322917,1.322916 v 10.583332 c 0,0.732894 -0.590025,1.322916 -1.322917,1.322917 H 74.083324 c -0.732892,0 -1.322917,-0.590023 -1.322917,-1.322917 V 26.45833 c 0,-0.732894 0.590025,-1.322917 1.322917,-1.322916 z M 52.91666,30.42708 h 15.874998 c 0.732893,0 1.322916,0.590021 1.322917,1.322916 v 10.583332 c 0,0.732895 -0.590024,1.322917 -1.322917,1.322917 H 52.91666 c -0.732893,0 -1.322916,-0.590022 -1.322916,-1.322917 V 31.749996 c 0,-0.732895 0.590023,-1.322916 1.322916,-1.322916 z" /></g><g
     inkscape:groupmode="layer"
     id="layer7"
     inkscape:label="cache étages"
     style="display:none"><path
       id="rect2308"
       style="fill:#ffffff;fill-opacity:0.8;stroke-width:0.529167;stroke-linecap:round;stroke-linejoin:round"
       d="M -2.645833,-2.645833 V 55.562493 H 161.39581 V -2.645833 Z M 0,-1.3229165 h 51.593744 c 0.732895,0 1.322916,0.59002149 1.322916,1.3229165 v 52.91666 c 0,0.732895 -0.590021,1.322917 -1.322916,1.322917 H 0 c -0.73289521,0 -1.3229165,-0.590022 -1.3229165,-1.322917 V 0 c 0,-0.73289501 0.59002129,-1.3229165 1.3229165,-1.3229165 z" /></g><g
     inkscape:groupmode="layer"
     id="layer8"
     inkscape:label="cache boutons étages"
     style="display:none"><path
       id="rect3033"
       style="fill:#ffffff;fill-opacity:0.8;stroke-width:0.529167;stroke-linecap:round;stroke-linejoin:round"
       d="M -2.645833,-2.645833 V 55.562493 H 161.39581 V -2.645833 Z M 7.937499,3.9687495 h 2.645833 c 0.732895,0 1.322916,0.5900215 1.322917,1.3229165 v 42.333328 c 0,0.732895 -0.590022,1.322917 -1.322917,1.322917 H 7.937499 c -0.7328948,0 -1.3229165,-0.590022 -1.3229165,-1.322917 V 5.291666 c 0,-0.732895 0.5900217,-1.3229165 1.3229165,-1.3229165 z" /></g><g
     inkscape:groupmode="layer"
     id="layer9"
     inkscape:label="cache lumières ascenseurs"
     style="display:none"><path
       id="rect2305"
       style="fill:#ffffff;fill-opacity:0.8;stroke-width:0.529167;stroke-linecap:round;stroke-linejoin:round"
       d="M -2.645833,-2.645833 V 55.562493 H 161.39581 V -2.645833 Z m 53.71041,2.51302459 c 0.250507,-1.2661e-4 0.479495,0.14137874 0.591695,0.36535233 l 1.3224,2.64634978 c 0.04625,0.092128 0.07029,0.1940556 0.07028,0.2971394 v 0.5291666 c -2.9e-4,0.1024238 -0.02433,0.2030177 -0.07028,0.2945557 l -1.3224,2.6468665 c -0.243708,0.4878654 -0.939682,0.4878654 -1.18339,0 l -1.3224,-2.6468665 c -0.04595,-0.091538 -0.06999,-0.1921319 -0.07028,-0.2945557 V 3.1760331 c -1e-5,-0.1030838 0.02403,-0.2050124 0.07028,-0.2971394 l 1.3224,-2.64634978 c 0.1122,-0.22397359 0.341188,-0.36547894 0.591695,-0.36535233 z m 21.166664,0 c 0.250507,-1.27e-4 0.479495,0.14137831 0.591695,0.36535233 l 1.3224,2.64634978 c 0.04625,0.092128 0.07029,0.1940563 0.07028,0.2971394 v 0.5291666 c -2.9e-4,0.1024241 -0.02433,0.2030157 -0.07028,0.2945557 l -1.3224,2.6468665 c -0.243708,0.4878665 -0.939682,0.4878665 -1.18339,0 l -1.3224,-2.6468665 c -0.04595,-0.091538 -0.06999,-0.1921316 -0.07028,-0.2945557 V 3.1760331 c -1e-5,-0.1030831 0.02403,-0.2050103 0.07028,-0.2971394 l 1.3224,-2.64634978 c 0.1122,-0.22397402 0.341188,-0.36547933 0.591695,-0.36535233 z M 51.064577,10.450524 c 0.250507,-1.27e-4 0.479495,0.141376 0.591695,0.365352 l 1.3224,2.64635 c 0.04625,0.09213 0.07029,0.194055 0.07028,0.297139 v 0.529167 c -2.9e-4,0.102425 -0.02433,0.203015 -0.07028,0.294555 l -1.3224,2.646867 c -0.243708,0.487868 -0.939682,0.487868 -1.18339,0 l -1.3224,-2.646867 c -0.04595,-0.09154 -0.06999,-0.19213 -0.07028,-0.294555 v -0.529167 c -1e-5,-0.103084 0.02403,-0.205009 0.07028,-0.297139 l 1.3224,-2.64635 c 0.1122,-0.223976 0.341188,-0.365479 0.591695,-0.365352 z m 21.166664,0 c 0.250507,-1.27e-4 0.479495,0.141376 0.591695,0.365352 l 1.3224,2.64635 c 0.04625,0.09213 0.07029,0.194055 0.07028,0.297139 v 0.529167 c -2.9e-4,0.102425 -0.02433,0.203015 -0.07028,0.294555 l -1.3224,2.646867 c -0.243708,0.487863 -0.939682,0.487863 -1.18339,0 l -1.3224,-2.646867 c -0.04595,-0.09154 -0.06999,-0.19213 -0.07028,-0.294555 v -0.529167 c -1e-5,-0.103084 0.02403,-0.205009 0.07028,-0.297139 l 1.3224,-2.64635 c 0.1122,-0.223976 0.341188,-0.365479 0.591695,-0.365352 z M 51.064577,21.033856 c 0.250507,-1.27e-4 0.479495,0.141376 0.591695,0.365352 l 1.3224,2.64635 c 0.04625,0.09213 0.07029,0.194055 0.07028,0.297139 v 0.529167 c -2.9e-4,0.102425 -0.02433,0.203015 -0.07028,0.294555 l -1.3224,2.646867 c -0.243708,0.487867 -0.939682,0.487867 -1.18339,0 l -1.3224,-2.646867 c -0.04595,-0.09154 -0.06999,-0.19213 -0.07028,-0.294555 v -0.529167 c -1e-5,-0.103084 0.02403,-0.205009 0.07028,-0.297139 l 1.3224,-2.64635 c 0.1122,-0.223976 0.341188,-0.365479 0.591695,-0.365352 z m 21.166664,0 c 0.250507,-1.27e-4 0.479495,0.141376 0.591695,0.365352 l 1.3224,2.64635 c 0.04625,0.09213 0.07029,0.194055 0.07028,0.297139 v 0.529167 c -2.9e-4,0.102425 -0.02433,0.203015 -0.07028,0.294555 l -1.3224,2.646867 c -0.243708,0.487864 -0.939682,0.487864 -1.18339,0 l -1.3224,-2.646867 c -0.04595,-0.09154 -0.06999,-0.19213 -0.07028,-0.294555 v -0.529167 c -1e-5,-0.103084 0.02403,-0.205009 0.07028,-0.297139 l 1.3224,-2.64635 c 0.1122,-0.223976 0.341188,-0.365479 0.591695,-0.365352 z M 51.064577,31.617188 c 0.250507,-1.27e-4 0.479495,0.141376 0.591695,0.365352 l 1.3224,2.64635 c 0.04625,0.09213 0.07029,0.194055 0.07028,0.297139 v 0.529167 c -2.9e-4,0.102425 -0.02433,0.203015 -0.07028,0.294555 l -1.3224,2.646867 c -0.243708,0.487866 -0.939682,0.487866 -1.18339,0 l -1.3224,-2.646867 c -0.04595,-0.09154 -0.06999,-0.19213 -0.07028,-0.294555 v -0.529167 c -1e-5,-0.103084 0.02403,-0.205009 0.07028,-0.297139 l 1.3224,-2.64635 c 0.1122,-0.223976 0.341188,-0.365479 0.591695,-0.365352 z m 21.166664,0 c 0.250507,-1.27e-4 0.479495,0.141376 0.591695,0.365352 l 1.3224,2.64635 c 0.04625,0.09213 0.07029,0.194055 0.07028,0.297139 v 0.529167 c -2.9e-4,0.102425 -0.02433,0.203015 -0.07028,0.294555 l -1.3224,2.646867 c -0.243708,0.487865 -0.939682,0.487865 -1.18339,0 l -1.3224,-2.646867 c -0.04595,-0.09154 -0.06999,-0.19213 -0.07028,-0.294555 v -0.529167 c -1e-5,-0.103084 0.02403,-0.205009 0.07028,-0.297139 l 1.3224,-2.64635 c 0.1122,-0.223976 0.341188,-0.365479 0.591695,-0.365352 z M 51.064577,42.20052 c 0.250507,-1.27e-4 0.479495,0.141376 0.591695,0.365352 l 1.3224,2.64635 c 0.04625,0.09213 0.07029,0.194055 0.07028,0.297139 v 0.529167 c -2.9e-4,0.102425 -0.02433,0.203015 -0.07028,0.294555 l -1.3224,2.646867 c -0.243708,0.487869 -0.939682,0.487869 -1.18339,0 l -1.3224,-2.646867 c -0.04595,-0.09154 -0.06999,-0.19213 -0.07028,-0.294555 v -0.529167 c -1e-5,-0.103084 0.02403,-0.205009 0.07028,-0.297139 l 1.3224,-2.64635 c 0.1122,-0.223976 0.341188,-0.365479 0.591695,-0.365352 z m 21.166664,0 c 0.250507,-1.27e-4 0.479495,0.141376 0.591695,0.365352 l 1.3224,2.64635 c 0.04625,0.09213 0.07029,0.194055 0.07028,0.297139 v 0.529167 c -2.9e-4,0.102425 -0.02433,0.203015 -0.07028,0.294555 l -1.3224,2.646867 c -0.243708,0.48787 -0.939682,0.48787 -1.18339,0 l -1.3224,-2.646867 c -0.04595,-0.09154 -0.06999,-0.19213 -0.07028,-0.294555 v -0.529167 c -1e-5,-0.103084 0.02403,-0.205009 0.07028,-0.297139 l 1.3224,-2.64635 c 0.1122,-0.223976 0.341188,-0.365479 0.591695,-0.365352 z" /></g><g
     inkscape:groupmode="layer"
     id="layer10"
     inkscape:label="cache boutons ascenseurs"
     style="display:inline"><path
       id="rect3710"
       style="fill:#ffffff;fill-opacity:0.80000001;stroke:none;stroke-width:1.32292;stroke-linecap:round;stroke-linejoin:round;stroke-dasharray:none"
       d="M -2.645833 -2.645833 L -2.645833 55.562493 L 161.39581 55.562493 L 161.39581 -2.645833 L -2.645833 -2.645833 z M 74.083324 25.135414 L 82.020823 25.135414 C 82.753717 25.135414 83.343739 25.725436 83.34374 26.45833 L 83.34374 29.104163 C 83.34374 29.837057 82.753717 30.427079 82.020823 30.42708 L 74.083324 30.42708 C 73.35043 30.42708 72.760407 29.837057 72.760407 29.104163 L 72.760407 26.45833 C 72.760407 25.725436 73.35043 25.135413 74.083324 25.135414 z M 52.91666 30.42708 L 60.854159 30.42708 C 61.587054 30.42708 62.177076 31.017101 62.177076 31.749996 L 62.177076 34.395829 C 62.177076 35.128724 61.587054 35.718746 60.854159 35.718746 L 52.91666 35.718746 C 52.183765 35.718746 51.593743 35.128724 51.593744 34.395829 L 51.593744 31.749996 C 51.593744 31.017101 52.183765 30.42708 52.91666 30.42708 z " /></g></svg>
